<svg xmlns="http://www.w3.org/2000/svg" width="27.705" height="27.705" viewBox="0 0 27.705 27.705">
  <g id="_002-chef-hat" data-name="002-chef-hat" transform="translate(0.25 0.25)">
    <path id="Trazado_4472" data-name="Trazado 4472" d="M13.8,19.75a.531.531,0,1,1-.531-.531A.531.531,0,0,1,13.8,19.75Zm0,0" transform="translate(4.588 6.924)" fill="#159a3d" stroke="#159a3d" stroke-width="0.5"/>
    <path id="Trazado_4473" data-name="Trazado 4473" d="M21.2,5.314a8.368,8.368,0,0,0-.865.049,6.909,6.909,0,0,0-13.467,0A8.369,8.369,0,0,0,6,5.314a5.98,5.98,0,0,0-6,5.845,6,6,0,0,0,5.632,5.826v9.69a.531.531,0,0,0,.531.531h9.564a.531.531,0,0,0,0-1.063H6.7V24.017H20.51v2.125h-.531a.531.531,0,0,0,0,1.063h1.063a.531.531,0,0,0,.531-.531v-9.69a6,6,0,0,0,5.632-5.826A5.98,5.98,0,0,0,21.2,5.314ZM21.046,15.94a5.678,5.678,0,0,1-2.917-.864.531.531,0,0,0-.55.909,6.819,6.819,0,0,0,2.932.99v5.979H17.322V18.6a.531.531,0,1,0-1.063,0v4.357H14.134V18.6a.531.531,0,0,0-1.063,0v4.357H10.946V18.6a.531.531,0,1,0-1.063,0v4.357H6.7V16.976a6.82,6.82,0,0,0,2.932-.99.531.531,0,1,0-.551-.909,5.678,5.678,0,0,1-2.918.864,4.96,4.96,0,0,1-5.1-4.782A4.929,4.929,0,0,1,6,6.376c.226,0,.478.014.708.038a7.123,7.123,0,0,0,.076,1.641.531.531,0,0,0,1.049-.17,6.008,6.008,0,0,1-.016-1.842,5.846,5.846,0,0,1,11.563,0,6.008,6.008,0,0,1-.016,1.842.531.531,0,0,0,.44.609.522.522,0,0,0,.086.007.532.532,0,0,0,.524-.447,7.122,7.122,0,0,0,.076-1.641c.23-.024.483-.038.708-.038a4.929,4.929,0,0,1,4.942,4.782A4.961,4.961,0,0,1,21.046,15.94Zm0,0" fill="#159a3d" stroke="#159a3d" stroke-width="0.5"/>
  </g>
</svg>
