<svg xmlns="http://www.w3.org/2000/svg" width="27.705" height="27.705" viewBox="0 0 27.705 27.705">
  <g id="_001-dish" data-name="001-dish" transform="translate(0.25 0.25)">
    <g id="Grupo_4814" data-name="Grupo 4814" transform="translate(14.51 6.799)">
      <g id="Grupo_4813" data-name="Grupo 4813">
        <path id="Trazado_4462" data-name="Trazado 4462" d="M15.422,7.368l-.291-.958a2.081,2.081,0,0,0-3.941,0l-.291.958a5.382,5.382,0,0,0-.15,2.494A2.346,2.346,0,0,0,11.956,11.5l-.326,7.288a1.436,1.436,0,0,0,.363,1.116,1.584,1.584,0,0,0,2.238.1q.052-.048.1-.1a1.417,1.417,0,0,0,.363-1.086L14.366,11.5a2.345,2.345,0,0,0,1.206-1.634A5.382,5.382,0,0,0,15.422,7.368ZM14.679,9.7a1.438,1.438,0,0,1-.941,1.083.453.453,0,0,0-.293.445l.345,7.654a.525.525,0,0,1-.136.411.7.7,0,0,1-.986,0,.544.544,0,0,1-.133-.441l.342-7.624a.453.453,0,0,0-.293-.445A1.438,1.438,0,0,1,11.642,9.7a4.471,4.471,0,0,1,.125-2.07l.291-.959a1.176,1.176,0,0,1,2.205,0l.291.959A4.477,4.477,0,0,1,14.679,9.7Z" transform="translate(-10.667 -4.998)" fill="#159a3d" stroke="#159a3d" stroke-width="0.5"/>
      </g>
    </g>
    <g id="Grupo_4816" data-name="Grupo 4816" transform="translate(7.708 6.801)">
      <g id="Grupo_4815" data-name="Grupo 4815">
        <path id="Trazado_4463" data-name="Trazado 4463" d="M10.2,5a.453.453,0,0,0-.453.453V9.346L8.52,10.574a.453.453,0,0,0-.133.343l.4,7.935a.618.618,0,0,1-.171.462.638.638,0,0,1-.9,0l0,0a.617.617,0,0,1-.171-.462l.4-7.935a.454.454,0,0,0-.132-.343L6.574,9.346V5.453a.453.453,0,1,0-.907,0V9.534a.453.453,0,0,0,.133.321l1.218,1.218-.387,7.735a1.532,1.532,0,0,0,3.06.149q0-.074,0-.149L9.3,11.073l1.218-1.218a.453.453,0,0,0,.133-.321V5.453A.453.453,0,0,0,10.2,5Z" transform="translate(-5.667 -5)" fill="#159a3d" stroke="#159a3d" stroke-width="0.5"/>
      </g>
    </g>
    <g id="Grupo_4818" data-name="Grupo 4818" transform="translate(9.068 6.801)">
      <g id="Grupo_4817" data-name="Grupo 4817">
        <path id="Trazado_4464" data-name="Trazado 4464" d="M7.12,5a.453.453,0,0,0-.453.453V9.081a.453.453,0,1,0,.907,0V5.453A.453.453,0,0,0,7.12,5Z" transform="translate(-6.667 -5)" fill="#159a3d" stroke="#159a3d" stroke-width="0.5"/>
      </g>
    </g>
    <g id="Grupo_4820" data-name="Grupo 4820" transform="translate(10.429 6.801)">
      <g id="Grupo_4819" data-name="Grupo 4819">
        <path id="Trazado_4465" data-name="Trazado 4465" d="M8.12,5a.453.453,0,0,0-.453.453V9.081a.453.453,0,1,0,.907,0V5.453A.453.453,0,0,0,8.12,5Z" transform="translate(-7.667 -5)" fill="#159a3d" stroke="#159a3d" stroke-width="0.5"/>
      </g>
    </g>
    <g id="Grupo_4822" data-name="Grupo 4822">
      <g id="Grupo_4821" data-name="Grupo 4821">
        <path id="Trazado_4466" data-name="Trazado 4466" d="M13.6,0a13.6,13.6,0,1,0,13.6,13.6A13.6,13.6,0,0,0,13.6,0Zm0,26.3A12.7,12.7,0,1,1,26.3,13.6,12.7,12.7,0,0,1,13.6,26.3Z" fill="#159a3d" stroke="#159a3d" stroke-width="0.5"/>
      </g>
    </g>
    <g id="Grupo_4824" data-name="Grupo 4824" transform="translate(12.135 21.705)">
      <g id="Grupo_4823" data-name="Grupo 4823">
        <path id="Trazado_4467" data-name="Trazado 4467" d="M11.86,16.366a.453.453,0,0,0-.5-.407l-.018,0h0a8.33,8.33,0,0,1-1.922,0,.454.454,0,1,0-.106.9,9.184,9.184,0,0,0,2.131,0A.453.453,0,0,0,11.86,16.366Z" transform="translate(-8.921 -15.956)" fill="#159a3d" stroke="#159a3d" stroke-width="0.5"/>
      </g>
    </g>
    <g id="Grupo_4826" data-name="Grupo 4826" transform="translate(19.23 7.598)">
      <g id="Grupo_4825" data-name="Grupo 4825">
        <path id="Trazado_4468" data-name="Trazado 4468" d="M15.447,5.748a.453.453,0,0,0-.639-.056l0,0a.453.453,0,0,0-.054.639,8.162,8.162,0,0,1-.481,11.039.454.454,0,1,0,.64.642A9.068,9.068,0,0,0,15.447,5.748Z" transform="translate(-14.137 -5.586)" fill="#159a3d" stroke="#159a3d" stroke-width="0.5"/>
      </g>
    </g>
    <g id="Grupo_4829" data-name="Grupo 4829" transform="translate(10.11 4.536)">
      <g id="Grupo_4828" data-name="Grupo 4828">
        <g id="Grupo_4827" data-name="Grupo 4827">
          <path id="Trazado_4469" data-name="Trazado 4469" d="M7.767,4.406h0Z" transform="translate(-7.313 -2.948)" fill="#159a3d" stroke="#159a3d" stroke-width="0.5"/>
          <path id="Trazado_4470" data-name="Trazado 4470" d="M13.064,3.586a9.149,9.149,0,0,0-5.337.328.453.453,0,1,0,.318.848,8.237,8.237,0,0,1,4.806-.295.453.453,0,0,0,.213-.881Z" transform="translate(-7.433 -3.334)" fill="#159a3d" stroke="#159a3d" stroke-width="0.5"/>
        </g>
      </g>
    </g>
    <g id="Grupo_4831" data-name="Grupo 4831" transform="translate(4.534 8.076)">
      <g id="Grupo_4830" data-name="Grupo 4830">
        <path id="Trazado_4471" data-name="Trazado 4471" d="M6.62,17.222A8.161,8.161,0,0,1,5.8,6.663a.453.453,0,1,0-.725-.545l-.008.011a9.068,9.068,0,0,0,.91,11.735.454.454,0,0,0,.642-.642Z" transform="translate(-3.333 -5.937)" fill="#159a3d" stroke="#159a3d" stroke-width="0.5"/>
      </g>
    </g>
  </g>
</svg>
