<svg id="meal" xmlns="http://www.w3.org/2000/svg" width="29.451" height="29.309" viewBox="0 0 29.451 29.309">
  <path id="Trazado_5833" data-name="Trazado 5833" d="M14.623,1.327h-.1a.861.861,0,0,0-.863.859v23.8a2.5,2.5,0,0,0,5.01,0v-7.1H19.9a.861.861,0,0,0,.863-.859V7.435A6.13,6.13,0,0,0,14.623,1.327Zm2.322,24.655a.779.779,0,0,1-1.559,0v-7.1h1.559Zm2.09-8.818H15.386V3.11a4.4,4.4,0,0,1,3.649,4.325Z" transform="translate(8.69 0.834)" fill="#159a3d"/>
  <path id="Trazado_5834" data-name="Trazado 5834" d="M19.579,0H.863A.861.861,0,0,0,0,.859V28.45a.861.861,0,0,0,.863.859H19.579a.861.861,0,0,0,.863-.859V.859A.861.861,0,0,0,19.579,0Zm-.863,27.591H1.726V1.717h16.99Z" fill="#159a3d"/>
  <path id="Trazado_5835" data-name="Trazado 5835" d="M6.677,8.835a3.128,3.128,0,0,0,.515,1.718,3.121,3.121,0,0,0,0,3.435,3.121,3.121,0,0,0,0,3.435,3.112,3.112,0,0,0-.515,1.717,3.157,3.157,0,0,0,6.314,0,3.112,3.112,0,0,0-.515-1.717,3.121,3.121,0,0,0,0-3.435,3.121,3.121,0,0,0,0-3.435,3.151,3.151,0,1,0-5.8-1.718ZM9.834,16a3.151,3.151,0,0,0-1.308.284A1.415,1.415,0,0,1,8.4,15.7a1.432,1.432,0,0,1,2.863,0,1.415,1.415,0,0,1-.123.576A3.15,3.15,0,0,0,9.834,16Zm1.431-3.727a1.415,1.415,0,0,1-.123.576,3.16,3.16,0,0,0-2.617,0A1.414,1.414,0,0,1,8.4,12.27a1.432,1.432,0,0,1,2.863,0ZM9.834,20.564a1.425,1.425,0,1,1,1.432-1.425,1.43,1.43,0,0,1-1.432,1.425ZM11.265,8.835a1.415,1.415,0,0,1-.123.576,3.16,3.16,0,0,0-2.617,0A1.414,1.414,0,0,1,8.4,8.835a1.432,1.432,0,0,1,2.863,0Z" transform="translate(4.247 3.577)" fill="#159a3d"/>
  <path id="Trazado_5836" data-name="Trazado 5836" d="M5.118,22.351a3.156,3.156,0,0,0,3.16-3.145V8.807a3.16,3.16,0,0,0-6.32,0v10.4a3.156,3.156,0,0,0,3.16,3.145Zm0-14.972A1.432,1.432,0,0,1,6.552,8.807v6.14H6.123a.859.859,0,1,0,0,1.717h.429v.973H5.6a.859.859,0,1,0,0,1.717h.94a1.435,1.435,0,0,1-2.861-.148V13.555h.947a.859.859,0,1,0,0-1.717H3.683v-.973h.429a.859.859,0,1,0,0-1.717H3.683V8.807A1.432,1.432,0,0,1,5.118,7.379Z" transform="translate(1.245 3.557)" fill="#159a3d"/>
  <path id="Trazado_5837" data-name="Trazado 5837" d="M5.218,6.4h6.293a2.29,2.29,0,1,0,0-4.579H5.218a2.29,2.29,0,1,0,0,4.579Zm0-2.862h6.293a.572.572,0,1,1,0,1.145H5.218a.572.572,0,1,1,0-1.145Z" transform="translate(1.856 1.141)" fill="#159a3d"/>
</svg>
