<svg id="Capa_2" data-name="Capa 2" xmlns="http://www.w3.org/2000/svg" width="22.338" height="29.451" viewBox="0 0 22.338 29.451">
  <g id="Capa_1" data-name="Capa 1">
    <path id="Trazado_4209" data-name="Trazado 4209" d="M5.3,21.907h8.676v-6H5.3Zm1.086-4.942h6.5v3.856H6.429Z" transform="translate(1.487 4.461)" fill="#159a3d"/>
    <rect id="Rect치ngulo_2038" data-name="Rect치ngulo 2038" width="1.738" height="1.738" transform="translate(16.321 20.367)" fill="#159a3d"/>
    <rect id="Rect치ngulo_2039" data-name="Rect치ngulo 2039" width="1.738" height="1.738" transform="translate(16.321 23.164)" fill="#159a3d"/>
    <path id="Trazado_4210" data-name="Trazado 4210" d="M21.249,7.916a4.073,4.073,0,0,0-2.879-1.263h-.1l1.942-5.3h1.358V0H.122V1.358H1.276L3.761,6.789A4.657,4.657,0,0,0,1.616,7.834,4.739,4.739,0,0,0,0,10.862V29.451H22.336V10.862a4.2,4.2,0,0,0-1.086-2.946ZM2.783,1.358H18.778l-1.955,5.3H5.214ZM5.73,9.98V8.011H16.592V9.98Zm10.862,1.358v.76a5.594,5.594,0,0,1-2.946,5.065,5.173,5.173,0,0,1-1.914.543V11.338Zm-6.219,0v6.314a4.942,4.942,0,0,1-1.263-.326,5.621,5.621,0,0,1-3.381-5.3v-.692ZM20.951,28.093H1.358V10.957A3.354,3.354,0,0,1,2.5,8.8a4.236,4.236,0,0,1,1.874-.774v4.2a6.517,6.517,0,0,0,1.792,4.6h0a7.712,7.712,0,0,0,1.779,1.358A6.789,6.789,0,0,0,14.42,18.1h.068a7.223,7.223,0,0,0,3.394-6.219V8.011h.38a2.716,2.716,0,0,1,1.9.842,2.811,2.811,0,0,1,.815,2.01Z" fill="#159a3d"/>
  </g>
</svg>
