<svg xmlns="http://www.w3.org/2000/svg" width="25.429" height="28.099" viewBox="0 0 25.429 28.099">
  <g id="_001-stopwatch" data-name="001-stopwatch" transform="translate(0.251 0.25)">
    <g id="Grupo_4809" data-name="Grupo 4809" transform="translate(0)">
      <g id="Grupo_4808" data-name="Grupo 4808">
        <path id="Trazado_4460" data-name="Trazado 4460" d="M25.891,14.819a12.461,12.461,0,0,0-3.125-7.939L24.725,5a.445.445,0,1,0-.587-.669l-.029.027L22.151,6.236c-.045-.045-.089-.093-.138-.138a12.4,12.4,0,0,0-8.138-3.416s0-.007,0-.011V.89h1.335a.445.445,0,1,0,0-.89H11.651a.445.445,0,1,0,0,.89h1.335V2.682A12.463,12.463,0,0,0,13.422,27.6q.166,0,.33,0A12.461,12.461,0,0,0,25.891,14.819ZM13.73,26.7a11.574,11.574,0,0,1-.6-23.14c.1,0,.2,0,.307,0A11.574,11.574,0,0,1,13.73,26.7Z" transform="translate(-0.968)" fill="#159a3d" stroke="#159a3d" stroke-width="0.5"/>
      </g>
    </g>
    <g id="Grupo_4811" data-name="Grupo 4811" transform="translate(4.884 7.646)">
      <g id="Grupo_4810" data-name="Grupo 4810">
        <path id="Trazado_4461" data-name="Trazado 4461" d="M12.107,11.249a1.791,1.791,0,0,0-.978.284L5.262,5.665a.445.445,0,0,0-.629.629l5.9,5.894a1.758,1.758,0,0,0-.223.841,1.791,1.791,0,1,0,1.8-1.781Zm-.021,2.671a.89.89,0,1,1,.89-.89A.89.89,0,0,1,12.086,13.92Z" transform="translate(-4.508 -5.54)" fill="#159a3d" stroke="#159a3d" stroke-width="0.5"/>
      </g>
    </g>
  </g>
</svg>
